<?xml version="1.0" encoding="UTF-8"?>
<svg width="1000px" height="1000px" viewBox="0 0 1000 1000" version="1.1" xmlns="http://www.w3.org/2000/svg" xmlns:xlink="http://www.w3.org/1999/xlink">
    <title>Nix Darwin Logo</title>
    <g id="Nix-Darwin-Logo" stroke="none" stroke-width="1" fill="none" fill-rule="evenodd">
        <g id="NixOS" transform="translate(-0.0944, 55.027)" fill="#FFFFFF">
            <polygon id="path3336-6" points="310.652221 455.972988 547.094354 865.952663 438.434456 866.972988 375.310121 756.826759 311.735239 866.384384 257.746147 866.363078 230.094354 818.543409 320.669268 662.647406 256.372638 550.648596"></polygon>
            <g id="use3439-6" transform="translate(257.273, 457.3085) rotate(60) translate(-257.273, -457.3085)translate(98.6312, 251.8271)">
                <polygon id="path3336-6" points="80.6299656 6.69376434e-13 317.283714 409.942542 208.526566 410.962774 145.345735 300.826521 81.7139531 410.374223 27.6765411 410.35292 9.11338695e-13 362.537582 90.6559785 206.655699 26.3018028 94.6670329"></polygon>
            </g>
            <g id="use3445-0" transform="translate(631.3356, 649.8714) rotate(-60) translate(-631.3356, -649.8714)translate(472.6937, 444.39)">
                <polygon id="path3336-6" points="80.6299656 3.91404271e-14 317.283714 409.942542 208.526566 410.962774 145.345735 300.826521 81.7139531 410.374223 27.6765411 410.35292 -1.45315794e-12 362.537582 90.6559785 206.655699 26.3018028 94.6670329"></polygon>
            </g>
            <g id="use3449-5" transform="translate(611.5944, 229.473) rotate(180) translate(-611.5944, -229.473)translate(453.0944, 23.973)">
                <polygon id="path3336-6" points="80.5578666 0 317 409.979676 208.340102 411 145.215767 300.853771 81.6408848 410.411396 27.6517928 410.390091 -2.38193802e-13 362.570422 90.5749142 206.674419 26.2782838 94.6756081"></polygon>
            </g>
            <polygon id="path4260-0" points="310.652221 455.972988 547.094354 865.952663 438.434456 866.972988 375.310121 756.826759 311.735239 866.384384 257.746147 866.363078 230.094354 818.543409 320.669268 662.647406 256.372638 550.648789"></polygon>
            <g id="use4354-5" transform="translate(368.371, 240.1286) rotate(120) translate(-368.371, -240.1286)translate(209.7292, 34.6472)">
                <polygon id="path4260-0" points="80.6299656 -5.89499272e-13 317.283714 409.942542 208.526566 410.962774 145.345735 300.826521 81.7139531 410.374223 27.6765411 410.35292 -1.10800543e-12 362.537582 90.6559785 206.655699 26.3018028 94.6672265"></polygon>
            </g>
            <g id="use4362-2" transform="translate(742.8735, 433.57) rotate(-120) translate(-742.8735, -433.57)translate(584.2316, 228.0886)">
                <polygon id="path4260-0" points="80.6299656 1.08009028e-12 317.283714 409.942542 208.526566 410.962774 145.345735 300.826521 81.7139531 410.374223 27.6765411 410.35292 1.83379686e-13 362.537582 90.6559785 206.655699 26.3018028 94.6672265"></polygon>
            </g>
        </g>
        <g id="Darwin" transform="translate(359.2842, 365.3555)" fill="#FFFFFF" fill-rule="nonzero">
            <path d="M138.078018,27.0284241 C133.628219,18.9631577 131.125208,10.0635534 126.536353,2.13734334 C125.423904,-0.365670365 121.947499,-0.643782999 120.139768,1.16394912 C114.160352,6.30903285 110.266778,13.1227924 106.512261,19.9365519 C113.326014,21.6052277 120.000712,23.6910725 126.258241,26.7503115 C130.012758,28.6970999 134.184444,27.3065367 138.078018,27.0284241 Z" id="Path"></path>
            <path d="M233.192456,95.5831884 C235.834524,94.7488505 238.476592,94.1926252 241.257716,93.4973436 C236.668861,90.9943299 231.662838,89.8818794 226.517759,89.0475415 C234.16585,88.0741473 241.11866,91.5505552 247.515245,95.1660194 C242.648278,73.3341777 227.908321,54.5615749 209.831015,41.7683937 C202.043868,36.3451973 193.839553,31.0610573 184.244675,29.3923815 C167.418875,26.1940862 150.03685,27.7237057 133.211051,30.2267194 C154.486649,43.0199005 172.00773,61.653447 184.383731,82.9290635 C188.138248,89.7428231 192.031822,96.6956389 193.283328,104.343736 C189.52881,100.728272 188.694473,95.4441321 186.330518,90.9943299 C176.874696,72.0826708 162.690964,55.6740254 146.004221,42.6027316 C130.708039,30.504832 111.65734,22.5786219 91.9113601,22.3005093 C80.5087519,21.8833404 69.1061438,23.9691851 58.676929,28.1408746 C52.6975125,30.504832 48.108658,35.7889721 46.4399836,41.90745 C42.5464101,56.0911943 46.9962084,71.1092766 54.0880745,83.6243451 C55.4786364,85.7101899 56.4520298,88.9084852 59.5112662,89.0475415 C61.8752215,80.5651061 65.2125702,71.8045582 71.7482115,65.5470239 C75.5027288,61.653447 81.6212015,63.0440102 85.7928874,59.8457149 C95.5268212,53.310068 107.485654,51.3632796 119.027319,49.8336601 C106.790373,43.9932948 92.7456973,41.3512247 79.1181899,43.1589569 C72.5825487,43.9932948 66.6031322,47.1915901 60.3456033,49.1383785 C64.9344578,44.8276327 71.3310429,43.2980132 77.3104594,41.90745 C93.0238097,38.5700984 109.015272,43.4370695 123.616173,49.2774348 C141.832535,57.0645886 159.90984,68.6062629 169.643774,86.4054715 C175.623191,96.9737516 174.92791,109.48882 172.981123,120.891438 C168.809437,145.504406 161.439459,169.561149 158.797391,194.45223 C157.128717,208.218805 157.128717,222.263493 157.267773,236.169125 C157.406829,246.18118 158.241166,256.471347 161.439459,266.066233 C167.696987,268.847359 174.649797,270.794148 181.602607,269.681697 C189.111642,268.847359 195.925395,264.67567 201.348587,259.669642 C191.336541,244.095335 184.661844,225.739901 185.496181,206.967298 C185.774293,200.570708 186.052406,193.896005 189.250698,188.194696 C188.694473,193.200723 187.860136,198.20675 187.582024,203.351834 C198.845576,198.20675 209.970071,192.366385 220.677399,186.108851 C225.683422,182.910555 230.967557,179.990373 235.000187,175.540571 C241.952997,167.058135 246.124683,156.767968 247.932413,146.060631 C238.476592,145.36535 228.186433,143.83573 221.511736,136.743858 C209.413847,124.22879 216.783825,100.450159 233.192456,95.5831884 Z" id="Path"></path>
            <path d="M261.559921,97.9471458 C252.243155,99.3377089 242.509222,94.8879068 233.331513,98.3643147 C221.511736,102.814117 215.810432,117.832199 220.399286,129.234817 C224.849084,138.55159 235.97358,142.027998 245.568458,141.888942 C253.633717,142.167055 260.86464,137.578196 266.287831,132.155 C276.160821,121.725776 282.974575,107.402975 280.888732,92.802062 C274.492147,94.8879068 268.373674,97.8080895 261.559921,97.9471458 Z" id="Path"></path>
            <path d="M135.992175,182.632443 C125.56296,179.573204 114.57752,179.156035 104.287362,175.818683 C99.1422823,174.150008 95.9439898,169.700205 92.3285287,166.084741 C86.7662808,160.522488 81.6212015,154.543067 75.9198974,149.11987 C70.6357619,143.83573 62.0142777,143.696674 55.4786364,146.616857 C46.718096,150.371377 36.9841622,151.483828 27.5283408,151.622884 C33.5077573,159.270982 41.1558481,165.38946 46.3009274,173.593782 C37.1232184,163.720784 27.667397,154.125898 17.5162946,145.087237 C14.7351707,142.584224 12.7883839,139.107816 9.17292282,137.856309 C3.74973113,136.465746 -1.53440436,141.888942 0.412382399,147.312138 C3.61067493,154.960236 10.9806534,159.827207 18.2115756,163.303615 C15.8476203,159.827207 12.7883839,157.185137 9.7291476,154.40401 C8.33858563,153.430616 8.47764183,151.900997 8.19952944,150.371377 C16.1257327,156.907024 23.2175987,164.555122 28.9189028,173.176613 C36.9841622,185.135457 48.3867704,194.591286 61.0408843,201.265989 C77.727628,208.218805 96.9173832,206.828242 114.021295,201.683158 C121.391274,200.014482 127.926915,196.259962 134.462556,192.783554 C131.820489,191.114878 129.178421,189.16809 126.119185,188.889977 C124.311454,188.472808 122.086555,188.611864 121.113161,186.665076 C125.56296,186.52602 130.29087,187.082245 133.767275,190.28054 C137.521793,193.061667 139.329523,198.345807 137.104624,202.656552 C136.131231,199.875426 138.217074,193.896005 133.767275,194.591286 C121.252218,203.769003 108.598104,213.085776 97.3345518,223.932169 C91.0770229,229.355365 83.8461006,234.361393 75.641785,236.308181 C65.768795,238.25497 57.1473108,230.189703 53.2537373,221.985381 C54.7833555,215.449734 58.676929,209.470312 58.2597604,202.37844 C56.1739174,201.126933 53.9490183,200.014482 51.8631753,198.902032 C51.7241191,204.325228 52.4194001,210.026537 49.9163886,215.032565 C48.6648828,218.508973 46.022815,222.124437 47.1352646,226.018014 C51.7241191,233.109886 57.7035356,239.645533 64.9344578,243.956279 C68.549919,246.320236 73.2778297,247.154574 77.1714032,244.790617 C87.4615618,238.950251 95.6658774,230.189703 106.095092,224.627451 C116.663363,218.926142 127.231634,213.363889 137.24368,206.689186 C141.832535,203.212778 147.394783,198.20675 146.421389,191.81016 C145.30894,186.247907 140.16386,184.162062 135.992175,182.632443 Z" id="Path"></path>
        </g>
    </g>
</svg>
